<svg width="128" height="61" viewBox="0 0 128 61" fill="none" xmlns="http://www.w3.org/2000/svg">
<g clip-path="url(#clip0_391_2050)">
<mask id="mask0_391_2050" style="mask-type:luminance" maskUnits="userSpaceOnUse" x="0" y="0" width="128" height="61">
<path d="M128 0H0V61H128V0Z" fill="white"/>
</mask>
<g mask="url(#mask0_391_2050)">
<path fill-rule="evenodd" clip-rule="evenodd" d="M8.74378 30.6937L15.5549 21.9855L8.74378 13.2773C10.4466 13.2773 12.1325 13.2773 13.8353 13.2773L20.6464 21.9855L13.8353 30.6937C12.1325 30.6937 10.4297 30.6937 8.74378 30.6937ZM-0.242188 30.6937L6.56894 21.9855L-0.242188 13.2773C1.46059 13.2773 3.14652 13.2773 4.84931 13.2773L11.6604 21.9855L4.84931 30.6937C3.16338 30.6937 1.46059 30.6937 -0.242188 30.6937Z" fill="white"/>
<path fill-rule="evenodd" clip-rule="evenodd" d="M64.531 48.4236C65.846 48.4236 66.8744 47.583 66.8744 45.9017C66.8744 44.4144 65.8291 43.8971 64.9188 43.5306C64.885 43.5092 64.8345 43.5092 64.8007 43.4876C64.1095 43.2073 63.5026 42.9486 63.5026 42.4099C63.5026 41.9141 63.8229 41.5692 64.3792 41.5692C64.9018 41.5692 65.5425 41.8495 66.1495 42.3236L66.7227 41.0088C66.0483 40.4483 65.1885 40.1034 64.413 40.1034C63.1654 40.1034 62.1706 41.0303 62.1706 42.5607C62.1706 44.1342 63.216 44.6085 64.1433 44.9748C64.1769 44.9964 64.2106 44.9964 64.2444 45.018C64.9356 45.2767 65.5425 45.4922 65.5425 46.0741C65.5425 46.6345 65.1885 46.9794 64.5646 46.9794C63.924 46.9794 63.1822 46.6345 62.5078 45.9879L61.8672 47.2381C62.6427 48.0141 63.6375 48.4236 64.531 48.4236ZM71.2072 48.4452C72.3706 48.4452 73.1798 47.8417 73.7867 46.9364L72.9437 45.9663C72.4379 46.5915 71.9491 46.9364 71.2409 46.9364C70.3136 46.9364 69.5887 46.2034 69.437 44.8886H74.0564C74.0733 44.8024 74.0733 44.5007 74.0733 44.3713C74.0733 42.065 73.0618 40.0388 71.0555 40.0388C69.2515 40.0388 67.9871 41.9357 67.9871 44.2204C67.9871 46.7639 69.3865 48.4452 71.2072 48.4452ZM69.4201 43.6816C69.5381 42.4315 70.162 41.5476 71.0386 41.5476C71.9996 41.5476 72.5392 42.4745 72.6403 43.66H69.4201V43.6816ZM78.4398 48.4452C79.6706 48.4452 80.3955 47.8201 81.0193 46.9364L80.1426 45.8371C79.6874 46.4406 79.1816 46.8502 78.5073 46.8502C77.3946 46.8502 76.619 45.6862 76.619 44.2636C76.619 42.8194 77.3777 41.677 78.423 41.677C79.148 41.677 79.62 42.0866 80.0583 42.6901L80.9519 41.4614C80.3618 40.6423 79.62 40.082 78.4398 40.082C76.5516 40.082 75.1691 42.0003 75.1691 44.285C75.186 46.5699 76.5684 48.4452 78.4398 48.4452ZM84.5092 48.4236C85.4871 48.4236 86.077 47.777 86.4817 47.001V48.2512H87.9316V40.2112H86.4817V44.7593C86.4817 46.0095 85.8916 46.7639 85.0656 46.7639C84.2056 46.7639 83.7168 46.0525 83.7168 44.8024V40.2328H82.2669V45.3629C82.2669 47.2165 83.0929 48.4236 84.5092 48.4236ZM89.7355 48.2728H91.1854V45.2119C91.1854 43.0781 92.0621 42.0219 93.3265 42.0219H93.4108V40.0604C92.2981 39.9957 91.5731 40.8148 91.1854 42.0219V40.2112H89.7355V48.2728ZM97.3222 48.4452C98.4855 48.4452 99.2948 47.8417 99.9017 46.9364L99.0587 45.9663C98.5529 46.5915 98.064 46.9364 97.3559 46.9364C96.4286 46.9364 95.7037 46.2034 95.552 44.8886H100.171C100.188 44.8024 100.188 44.5007 100.188 44.3713C100.188 42.065 99.1767 40.0388 97.1705 40.0388C95.3665 40.0388 94.1021 41.9357 94.1021 44.2204C94.1021 46.7639 95.5015 48.4452 97.3222 48.4452ZM95.5183 43.6816C95.6531 42.4315 96.277 41.5692 97.1536 41.5692C98.1146 41.5692 98.6541 42.4961 98.7552 43.6816H95.5183ZM104.234 48.4236C105.263 48.4236 105.92 47.7554 106.376 46.9148V48.2512H107.826V37.1289H106.376V41.4614C105.92 40.707 105.263 40.0388 104.234 40.0388C102.734 40.0388 101.318 41.5476 101.318 44.2204C101.318 46.9148 102.768 48.4236 104.234 48.4236ZM104.589 46.8286C103.611 46.8286 102.785 45.8155 102.785 44.242C102.785 42.6039 103.611 41.6338 104.589 41.6338C105.549 41.6338 106.409 42.6469 106.409 44.2204C106.409 45.7939 105.549 46.8286 104.589 46.8286ZM116.778 48.4236C118.278 48.4236 119.711 46.9148 119.711 44.242C119.711 41.5476 118.261 40.0388 116.778 40.0388C115.766 40.0388 115.109 40.707 114.637 41.5476V37.1289H113.187V48.2512H114.637V47.001C115.092 47.7554 115.749 48.4236 116.778 48.4236ZM116.457 46.8286C115.48 46.8286 114.62 45.8155 114.62 44.242C114.62 42.6685 115.48 41.6338 116.457 41.6338C117.435 41.6338 118.261 42.6469 118.261 44.2204C118.244 45.8371 117.435 46.8286 116.457 46.8286ZM122.19 50.7515C123.201 50.7515 123.758 50.148 124.263 48.4883L126.775 40.2112H125.275L123.639 46.182L121.852 40.2112H120.318L122.948 48.2512C122.712 48.9624 122.459 49.1781 122.055 49.1781C121.751 49.1781 121.465 49.0486 121.212 48.8762L120.723 50.2558C121.144 50.5575 121.583 50.7515 122.19 50.7515Z" fill="white"/>
<path fill-rule="evenodd" clip-rule="evenodd" d="M40.3879 28.0853C40.9443 28.0853 41.4838 27.8913 41.9389 27.5249C42.8662 26.8135 43.372 25.5634 43.372 24.184C43.372 22.7613 42.8325 21.468 41.8546 20.7567C41.3995 20.4334 40.8937 20.261 40.3879 20.261C39.8653 20.261 39.3595 20.4334 38.9043 20.7783C37.9434 21.4896 37.4207 22.7829 37.4207 24.184C37.4207 25.5419 37.9097 26.7921 38.82 27.5033C39.2921 27.8913 39.8316 28.0853 40.3879 28.0853ZM26.9512 22.6967V16.4242H29.5811C30.2555 16.4242 30.8288 16.7476 31.3177 17.3511C31.8066 17.9545 32.0426 18.6875 32.0426 19.5496C32.0426 20.4118 31.7897 21.1447 31.3177 21.7698C30.8456 22.3732 30.2555 22.6967 29.5811 22.6967H29.1091H26.9512ZM26.9512 25.822H29.126H29.5981C30.2555 25.822 30.8962 25.6712 31.5032 25.3263C32.0932 25.003 32.6159 24.5503 33.0542 23.9899C33.5094 23.4079 33.8466 22.7397 34.0994 22.0069C34.3692 21.2309 34.4873 20.4118 34.4873 19.5712C34.4873 18.7306 34.3692 17.9115 34.0994 17.1355C33.8466 16.4026 33.4925 15.7344 33.0542 15.1525C32.5989 14.5705 32.0763 14.1394 31.5032 13.8161C30.8962 13.4712 30.2555 13.3203 29.5981 13.3203H24.5234V30.6935H26.968L26.9512 25.822ZM43.5238 29.163C42.6639 30.327 41.4501 30.9521 40.2025 30.9521C37.2521 30.9521 35.0942 27.9129 35.0942 24.184C35.0942 20.4765 37.2353 17.3942 40.2025 17.3942C41.4669 17.3942 42.6639 18.0408 43.5238 19.2047V17.545H45.8335V30.8013H43.5238V29.163ZM55.6455 28.9692C54.9038 30.1115 53.7573 30.6503 52.594 30.6503C49.5763 30.6503 48.0757 27.9775 48.0757 24.2916V17.5666H50.4023V24.1408C50.4023 26.3394 51.0935 27.7836 52.9144 27.7836C54.87 27.7836 55.6793 25.9945 55.6793 23.6666V17.5666H57.989V28.9692C57.989 32.9351 56.067 35.6726 52.8975 35.6726C51.2621 35.6726 49.6942 35.0044 48.4298 33.6465L48.295 33.5171L49.6436 31.685L49.7617 31.7712C50.7563 32.5472 51.7342 32.9351 52.8975 32.9351C54.634 32.9351 55.6625 31.7496 55.6625 29.5079V28.9692H55.6455Z" fill="white"/>
<path fill-rule="evenodd" clip-rule="evenodd" d="M97.2074 21.1232L97.2748 20.9508C97.2748 20.9294 97.2917 20.9078 97.2917 20.8862L97.3591 20.7137L97.376 20.6707L97.3928 20.6275L97.4266 20.5629C97.4434 20.5197 97.4771 20.4766 97.4939 20.4335L97.5109 20.412C97.5277 20.3904 97.5277 20.3688 97.5446 20.3472L97.5614 20.3258L97.5952 20.2612L97.612 20.2396C97.6457 20.1749 97.6963 20.0887 97.73 20.0239C97.7468 20.0025 97.7638 19.9809 97.7806 19.9593C98.7584 18.3426 100.259 17.3943 101.861 17.3943H102.063C104.963 17.459 107.053 20.4766 107.053 24.1625C107.053 27.8698 104.912 30.9523 101.945 30.9523C100.798 30.9523 99.6857 30.3272 98.944 29.2278V35.4787H96.6341V23.8607C96.6679 23.0416 96.8028 22.2226 97.0556 21.4681V21.4465L97.0726 21.3819L97.0894 21.3389L97.1062 21.2741L97.1231 21.2095L97.2074 21.1232ZM62.3594 13.2773H64.8039V30.6505H62.3594V13.2773ZM68.1589 21.9855L73.8236 30.6937H70.6035L65.1411 21.9855L70.5867 13.2773H73.8068L68.1589 21.9855ZM75.8974 25.0032C75.9817 27.0724 77.2798 28.1501 78.8645 28.1501C79.9604 28.1501 81.0563 27.7622 82.0004 27.0508L82.1184 26.9646L83.3997 28.7321L83.2649 28.8615C81.9835 30.1117 80.483 30.8661 78.8645 30.8661C75.7624 30.8661 73.5202 28.0855 73.5202 24.0979C73.5202 20.1964 75.6613 17.3081 78.7466 17.3081C80.8371 17.3081 82.5062 18.5799 83.3322 21.037C83.6862 22.0933 83.7875 23.7314 83.5176 24.8091L83.484 24.96L75.8974 25.0032ZM87.3111 25.0032C87.3954 27.0724 88.6935 28.1501 90.2782 28.1501C91.3741 28.1501 92.47 27.7622 93.4141 27.0508L93.5322 26.9646L94.8135 28.7321L94.6785 28.8615C93.3972 30.1117 91.8967 30.8661 90.2782 30.8661C87.1761 30.8661 84.9339 28.0855 84.9339 24.0979C84.9339 20.1964 87.075 17.3081 90.1602 17.3081C92.2507 17.3081 93.9199 18.5799 94.746 21.037C95.1 22.0933 95.2012 23.7314 94.9314 24.8091L94.8978 24.96L87.3111 25.0032ZM110.83 25.0032C110.914 27.0724 112.212 28.1501 113.797 28.1501C114.893 28.1501 115.989 27.7622 116.933 27.0508L117.051 26.9646L118.332 28.7321L118.197 28.8615C116.916 30.1117 115.415 30.8661 113.797 30.8661C110.695 30.8661 108.453 28.0855 108.453 24.0979C108.453 20.1964 110.594 17.3081 113.679 17.3081C115.769 17.3081 117.439 18.5799 118.265 21.037C118.619 22.0933 118.72 23.7314 118.45 24.8091L118.416 24.96H110.83V25.0032ZM98.944 24.1409C98.944 29.5297 104.744 29.077 104.744 24.1409C104.744 19.2049 98.944 18.7523 98.944 24.1409ZM76.0322 22.6537H81.3597C81.326 22.4166 81.2585 22.201 81.1743 21.9855C80.7191 20.7569 79.8086 20.0887 78.7634 20.0887C77.6002 20.0887 76.5043 20.8862 76.1165 22.3304C76.066 22.438 76.049 22.5459 76.0322 22.6537ZM87.4459 22.6537H92.7735C92.7397 22.4166 92.6722 22.201 92.5879 21.9855C92.1328 20.7569 91.2223 20.0887 90.1771 20.0887C89.0138 20.0887 87.918 20.8862 87.5302 22.3304C87.4965 22.438 87.4628 22.5459 87.4459 22.6537ZM110.965 22.6537H116.292C116.258 22.4166 116.191 22.201 116.107 21.9855C115.651 20.7569 114.741 20.0887 113.696 20.0887C112.532 20.0887 111.437 20.8862 111.049 22.3304C110.998 22.438 110.981 22.5459 110.965 22.6537ZM122.614 19.2695C123.542 17.9547 124.84 17.3727 126.239 17.3727H126.779V20.3258H125.784C123.558 20.3258 122.648 22.2658 122.648 24.8954V30.7151H120.237V17.5022H122.597V19.2695H122.614Z" fill="#E0E0E0"/>
</g>
</g>
<defs>
<clipPath id="clip0_391_2050">
<rect width="128" height="61" fill="white"/>
</clipPath>
</defs>
</svg>
