<svg width="18" height="18" viewBox="0 0 18 18" fill="none" xmlns="http://www.w3.org/2000/svg">
<path d="M8.25 1.5H6.75C3 1.5 1.5 3 1.5 6.75V11.25C1.5 15 3 16.5 6.75 16.5H11.25C15 16.5 16.5 15 16.5 11.25V9.75" stroke="#292D32" stroke-width="1.5" stroke-linecap="round" stroke-linejoin="round"/>
<path d="M12.0245 2.26397L6.11454 8.17397C5.88954 8.39897 5.66454 8.84147 5.61954 9.16397L5.29704 11.4215C5.17704 12.239 5.75454 12.809 6.57204 12.6965L8.82954 12.374C9.14454 12.329 9.58704 12.104 9.81954 11.879L15.7295 5.96897C16.7495 4.94897 17.2295 3.76397 15.7295 2.26397C14.2295 0.763969 13.0445 1.24397 12.0245 2.26397Z" stroke="#292D32" stroke-width="1.5" stroke-miterlimit="10" stroke-linecap="round" stroke-linejoin="round"/>
<path d="M11.1797 3.11328C11.6822 4.90578 13.0847 6.30828 14.8847 6.81828" stroke="#292D32" stroke-width="1.5" stroke-miterlimit="10" stroke-linecap="round" stroke-linejoin="round"/>
</svg>
