<svg width="33" height="33" viewBox="0 0 33 33" fill="none" xmlns="http://www.w3.org/2000/svg">
<path d="M16.4948 15.5C19.8315 15.5 22.5365 12.9816 22.5365 9.875C22.5365 6.7684 19.8315 4.25 16.4948 4.25C13.1581 4.25 10.4531 6.7684 10.4531 9.875C10.4531 12.9816 13.1581 15.5 16.4948 15.5Z" stroke="#00D8FF" stroke-width="2" stroke-linecap="round" stroke-linejoin="round"/>
<path d="M25.2088 19.7072L20.9312 23.6897C20.7621 23.8472 20.605 24.1397 20.5687 24.3534L20.3392 25.8721C20.2546 26.4234 20.6654 26.8059 21.2575 26.7271L22.8887 26.5134C23.1183 26.4796 23.4446 26.3334 23.6017 26.1759L27.8791 22.1934C28.6162 21.5072 28.9666 20.7084 27.8791 19.6959C26.8037 18.6946 25.9459 19.0209 25.2088 19.7072Z" stroke="#00D8FF" stroke-width="2" stroke-miterlimit="10" stroke-linecap="round" stroke-linejoin="round"/>
<path d="M24.5938 20.2812C24.9563 21.4963 25.9712 22.4412 27.2762 22.7787" stroke="#00D8FF" stroke-width="2" stroke-miterlimit="10" stroke-linecap="round" stroke-linejoin="round"/>
<path d="M6.11719 26.75C6.11719 22.3963 10.7693 18.875 16.4968 18.875C17.7535 18.875 18.9618 19.0437 20.0855 19.3587" stroke="#00D8FF" stroke-width="2" stroke-linecap="round" stroke-linejoin="round"/>
<path d="M1 11.8401C1 8.04569 1 6.1485 1.73844 4.69924C2.38798 3.42443 3.42443 2.38798 4.69924 1.73844C6.1485 1 8.04569 1 11.8401 1H20.6476C24.442 1 26.3392 1 27.7885 1.73844C29.0633 2.38798 30.0997 3.42443 30.7493 4.69924C31.4877 6.1485 31.4877 8.04569 31.4877 11.8401V20.6499C31.4877 24.4443 31.4877 26.3415 30.7493 27.7908C30.0997 29.0656 29.0633 30.102 27.7885 30.7516C26.3392 31.49 24.442 31.49 20.6476 31.49H11.8401C8.04569 31.49 6.1485 31.49 4.69924 30.7516C3.42443 30.102 2.38798 29.0656 1.73844 27.7908C1 26.3415 1 24.4443 1 20.6499V11.8401Z" stroke="#00D8FF" stroke-width="1.27032"/>
</svg>
