<svg width="148" height="74" viewBox="0 0 148 74" fill="none" xmlns="http://www.w3.org/2000/svg">
<g clip-path="url(#clip0_1106_4346)">
<mask id="mask0_1106_4346" style="mask-type:luminance" maskUnits="userSpaceOnUse" x="0" y="0" width="148" height="74">
<path d="M148 0.773438H0V73.3834H148V0.773438Z" fill="white"/>
</mask>
<g mask="url(#mask0_1106_4346)">
<path fill-rule="evenodd" clip-rule="evenodd" d="M10.1166 37.3092L17.9919 26.9437L10.1166 16.5781C12.0854 16.5781 14.0348 16.5781 16.0036 16.5781L23.879 26.9437L16.0036 37.3092C14.0348 37.3092 12.0659 37.3092 10.1166 37.3092ZM-0.273438 37.3092L7.60193 26.9437L-0.273438 16.5781C1.6954 16.5781 3.64476 16.5781 5.61361 16.5781L13.489 26.9437L5.61361 37.3092C3.66425 37.3092 1.6954 37.3092 -0.273438 37.3092Z" fill="#D6D6D6"/>
<path fill-rule="evenodd" clip-rule="evenodd" d="M74.6269 58.4132C76.1474 58.4132 77.3365 57.4125 77.3365 55.4112C77.3365 53.6409 76.1278 53.0251 75.0753 52.5889C75.0362 52.5634 74.9778 52.5634 74.9388 52.5376C74.1396 52.204 73.4378 51.8961 73.4378 51.2548C73.4378 50.6647 73.8081 50.2542 74.4514 50.2542C75.0557 50.2542 75.7964 50.5878 76.4983 51.1522L77.161 49.5871C76.3812 48.9199 75.3871 48.5094 74.4904 48.5094C73.048 48.5094 71.8977 49.6126 71.8977 51.4344C71.8977 53.3073 73.1064 53.8719 74.1786 54.308C74.2175 54.3337 74.2565 54.3337 74.2955 54.3594C75.0947 54.6673 75.7964 54.9238 75.7964 55.6165C75.7964 56.2835 75.3871 56.6941 74.6658 56.6941C73.925 56.6941 73.0674 56.2835 72.2876 55.5139L71.5469 57.002C72.4435 57.9257 73.5938 58.4132 74.6269 58.4132ZM82.3462 58.4389C83.6914 58.4389 84.6271 57.7204 85.3288 56.6429L84.3541 55.4882C83.7693 56.2323 83.204 56.6429 82.3853 56.6429C81.3131 56.6429 80.4749 55.7704 80.2995 54.2053H85.6407C85.6602 54.1027 85.6602 53.7436 85.6602 53.5895C85.6602 50.8443 84.4906 48.4324 82.1709 48.4324C80.085 48.4324 78.6231 50.6904 78.6231 53.4099C78.6231 56.4376 80.2411 58.4389 82.3462 58.4389ZM80.2799 52.7686C80.4164 51.2805 81.1377 50.2285 82.1513 50.2285C83.2625 50.2285 83.8863 51.3317 84.0032 52.7429H80.2799V52.7686ZM90.709 58.4389C92.132 58.4389 92.9702 57.6947 93.6916 56.6429L92.6778 55.3343C92.1515 56.0528 91.5666 56.5402 90.787 56.5402C89.5005 56.5402 88.6037 55.1547 88.6037 53.4614C88.6037 51.7423 89.4809 50.3825 90.6896 50.3825C91.5278 50.3825 92.0736 50.87 92.5804 51.5884L93.6135 50.1258C92.9312 49.1509 92.0736 48.4839 90.709 48.4839C88.5258 48.4839 86.9272 50.7673 86.9272 53.4869C86.9468 56.2066 88.5452 58.4389 90.709 58.4389ZM97.7267 58.4132C98.8574 58.4132 99.5395 57.6435 100.007 56.7198V58.2079H101.684V48.6377H100.007V54.0515C100.007 55.5396 99.3251 56.4376 98.37 56.4376C97.3757 56.4376 96.8105 55.5908 96.8105 54.1027V48.6634H95.134V54.7699C95.134 56.9763 96.0892 58.4132 97.7267 58.4132ZM103.77 58.2336H105.446V54.5902C105.446 52.0502 106.46 50.793 107.922 50.793H108.019V48.4581C106.733 48.3812 105.894 49.3562 105.446 50.793V48.6377H103.77V58.2336ZM112.542 58.4389C113.887 58.4389 114.823 57.7204 115.524 56.6429L114.55 55.4882C113.965 56.2323 113.399 56.6429 112.581 56.6429C111.509 56.6429 110.67 55.7704 110.495 54.2053H115.836C115.856 54.1027 115.856 53.7436 115.856 53.5895C115.856 50.8443 114.686 48.4324 112.366 48.4324C110.28 48.4324 108.819 50.6904 108.819 53.4099C108.819 56.4376 110.436 58.4389 112.542 58.4389ZM110.456 52.7686C110.612 51.2805 111.333 50.2542 112.347 50.2542C113.458 50.2542 114.082 51.3574 114.199 52.7686H110.456ZM120.534 58.4132C121.723 58.4132 122.483 57.6178 123.01 56.6172V58.2079H124.686V44.9688H123.01V50.1258C122.483 49.2278 121.723 48.4324 120.534 48.4324C118.799 48.4324 117.162 50.2285 117.162 53.4099C117.162 56.6172 118.838 58.4132 120.534 58.4132ZM120.943 56.5145C119.813 56.5145 118.858 55.3086 118.858 53.4357C118.858 51.4858 119.813 50.3311 120.943 50.3311C122.054 50.3311 123.049 51.537 123.049 53.4099C123.049 55.2829 122.054 56.5145 120.943 56.5145ZM135.037 58.4132C136.772 58.4132 138.429 56.6172 138.429 53.4357C138.429 50.2285 136.753 48.4324 135.037 48.4324C133.868 48.4324 133.107 49.2278 132.562 50.2285V44.9688H130.885V58.2079H132.562V56.7198C133.088 57.6178 133.848 58.4132 135.037 58.4132ZM134.667 56.5145C133.536 56.5145 132.542 55.3086 132.542 53.4357C132.542 51.5627 133.536 50.3311 134.667 50.3311C135.797 50.3311 136.753 51.537 136.753 53.4099C136.733 55.3343 135.797 56.5145 134.667 56.5145ZM141.295 61.1841C142.464 61.1841 143.108 60.4657 143.692 58.4901L146.597 48.6377H144.862L142.971 55.7449L140.905 48.6377H139.131L142.172 58.2079C141.899 59.0545 141.606 59.3112 141.139 59.3112C140.788 59.3112 140.456 59.1571 140.164 58.9519L139.599 60.594C140.086 60.9531 140.593 61.1841 141.295 61.1841Z" fill="#D6D6D6"/>
<path fill-rule="evenodd" clip-rule="evenodd" d="M46.7105 34.208C47.3538 34.208 47.9776 33.977 48.5039 33.541C49.576 32.6942 50.1609 31.2061 50.1609 29.5641C50.1609 27.8707 49.537 26.3312 48.4064 25.4846C47.8802 25.0998 47.2953 24.8945 46.7105 24.8945C46.1063 24.8945 45.5214 25.0998 44.9951 25.5103C43.884 26.3569 43.2796 27.8964 43.2796 29.5641C43.2796 31.1806 43.845 32.6687 44.8976 33.5153C45.4434 33.977 46.0672 34.208 46.7105 34.208ZM31.1743 27.7938V20.3274H34.2151C34.9949 20.3274 35.6578 20.7124 36.223 21.4308C36.7884 22.149 37.0612 23.0215 37.0612 24.0477C37.0612 25.0741 36.7688 25.9464 36.223 26.6905C35.6772 27.4088 34.9949 27.7938 34.2151 27.7938H33.6693H31.1743ZM31.1743 31.514H33.6889H34.2347C34.9949 31.514 35.7356 31.3344 36.4375 30.9239C37.1197 30.539 37.7241 30.0001 38.2309 29.3331C38.7572 28.6404 39.1471 27.845 39.4394 26.9727C39.7514 26.049 39.8879 25.0741 39.8879 24.0734C39.8879 23.0728 39.7514 22.0978 39.4394 21.1741C39.1471 20.3018 38.7377 19.5064 38.2309 18.8137C37.7045 18.1209 37.1002 17.6078 36.4375 17.2229C35.7356 16.8124 34.9949 16.6328 34.2347 16.6328H28.3672V37.3126H31.1937L31.1743 31.514ZM50.3364 35.4908C49.3421 36.8763 47.9386 37.6205 46.4961 37.6205C43.0847 37.6205 40.5896 34.0027 40.5896 29.5641C40.5896 25.151 43.0652 21.482 46.4961 21.482C47.9581 21.482 49.3421 22.2517 50.3364 23.6372V21.6616H53.0069V37.4409H50.3364V35.4908ZM64.3521 35.2601C63.4945 36.6198 62.1689 37.2611 60.8237 37.2611C57.3345 37.2611 55.5995 34.0797 55.5995 29.6922V21.6873H58.2896V29.5127C58.2896 32.1298 59.0888 33.8489 61.1942 33.8489C63.4554 33.8489 64.3911 31.7192 64.3911 28.9483V21.6873H67.0617V35.2601C67.0617 39.9809 64.8395 43.2393 61.1748 43.2393C59.2838 43.2393 57.4709 42.4439 56.009 40.8277L55.853 40.6736L57.4124 38.4928L57.5489 38.5954C58.699 39.5191 59.8296 39.9809 61.1748 39.9809C63.1825 39.9809 64.3717 38.5697 64.3717 35.9014V35.2601H64.3521Z" fill="#D6D6D6"/>
<path fill-rule="evenodd" clip-rule="evenodd" d="M112.402 25.9173L112.48 25.712C112.48 25.6865 112.5 25.6608 112.5 25.6351L112.578 25.4298L112.597 25.3786L112.617 25.3272L112.656 25.2503C112.675 25.1989 112.714 25.1477 112.734 25.0962L112.753 25.0707C112.773 25.045 112.773 25.0193 112.792 24.9936L112.812 24.9681L112.851 24.8912L112.87 24.8655C112.909 24.7885 112.968 24.6859 113.007 24.6088C113.026 24.5833 113.046 24.5575 113.065 24.5318C114.196 22.6075 115.931 21.4787 117.783 21.4787H118.017C121.369 21.5556 123.787 25.1477 123.787 29.5351C123.787 33.948 121.311 37.6171 117.88 37.6171C116.555 37.6171 115.268 36.873 114.41 35.5644V43.005H111.74V29.1757C111.779 28.2008 111.935 27.2259 112.227 26.3279V26.3021L112.247 26.2252L112.266 26.174L112.285 26.0969L112.305 26.0199L112.402 25.9173ZM72.1094 16.5781H74.9359V37.2578H72.1094V16.5781ZM78.8151 26.9437L85.3649 37.3092H81.6416L75.3258 26.9437L81.6222 16.5781H85.3455L78.8151 26.9437ZM87.7627 30.5357C87.8602 32.9987 89.3611 34.2816 91.1934 34.2816C92.4606 34.2816 93.7277 33.8198 94.8193 32.973L94.9558 32.8704L96.4373 34.9743L96.2814 35.1284C94.7997 36.6165 93.0648 37.5145 91.1934 37.5145C87.6066 37.5145 85.0141 34.2047 85.0141 29.4581C85.0141 24.814 87.4897 21.3761 91.0571 21.3761C93.4743 21.3761 95.4041 22.8899 96.3593 25.8147C96.7686 27.072 96.8856 29.0219 96.5736 30.3047L96.5347 30.4843L87.7627 30.5357ZM100.96 30.5357C101.057 32.9987 102.558 34.2816 104.391 34.2816C105.658 34.2816 106.925 33.8198 108.016 32.973L108.153 32.8704L109.634 34.9743L109.478 35.1284C107.997 36.6165 106.262 37.5145 104.391 37.5145C100.804 37.5145 98.2112 34.2047 98.2112 29.4581C98.2112 24.814 100.687 21.3761 104.254 21.3761C106.671 21.3761 108.601 22.8899 109.556 25.8147C109.966 27.072 110.083 29.0219 109.771 30.3047L109.732 30.4843L100.96 30.5357ZM128.153 30.5357C128.251 32.9987 129.752 34.2816 131.584 34.2816C132.851 34.2816 134.118 33.8198 135.21 32.973L135.346 32.8704L136.828 34.9743L136.672 35.1284C135.19 36.6165 133.455 37.5145 131.584 37.5145C127.997 37.5145 125.405 34.2047 125.405 29.4581C125.405 24.814 127.88 21.3761 131.448 21.3761C133.865 21.3761 135.795 22.8899 136.75 25.8147C137.159 27.072 137.276 29.0219 136.964 30.3047L136.925 30.4843H128.153V30.5357ZM114.41 29.5093C114.41 35.9237 121.116 35.3849 121.116 29.5093C121.116 23.6338 114.41 23.0951 114.41 29.5093ZM87.9186 27.739H94.0786C94.0395 27.4568 93.9615 27.2002 93.8642 26.9437C93.3378 25.4813 92.2851 24.6859 91.0765 24.6859C89.7315 24.6859 88.4644 25.6351 88.0161 27.3542C87.9576 27.4824 87.938 27.6107 87.9186 27.739ZM101.116 27.739H107.276C107.237 27.4568 107.159 27.2002 107.061 26.9437C106.535 25.4813 105.482 24.6859 104.274 24.6859C102.929 24.6859 101.662 25.6351 101.213 27.3542C101.174 27.4824 101.135 27.6107 101.116 27.739ZM128.309 27.739H134.469C134.43 27.4568 134.352 27.2002 134.255 26.9437C133.728 25.4813 132.676 24.6859 131.467 24.6859C130.122 24.6859 128.855 25.6351 128.407 27.3542C128.348 27.4824 128.329 27.6107 128.309 27.739ZM141.779 23.7108C142.851 22.1457 144.352 21.453 145.97 21.453H146.594V24.9681H145.444C142.871 24.9681 141.818 27.2773 141.818 30.4074V37.3347H139.03V21.607H141.76V23.7108H141.779Z" fill="#E0E0E0"/>
</g>
</g>
<defs>
<clipPath id="clip0_1106_4346">
<rect width="148" height="72.6099" fill="white" transform="translate(0 0.773438)"/>
</clipPath>
</defs>
</svg>
