<svg width="138" height="36" viewBox="0 0 138 36" fill="none" xmlns="http://www.w3.org/2000/svg">
<path d="M45.875 33.4531L43.8864 30.7978H43.1745V33.4531H42.474V27.668H43.1745V30.1764H43.4796L45.7959 27.668H46.632L44.2931 30.2103L46.7111 33.4531H45.875ZM47.8537 33.4531H47.1193L49.2435 27.668H49.9667L52.0909 33.4531H51.3565L49.6277 28.5832H49.5825L47.8537 33.4531ZM48.1249 31.1933H51.0853V31.8148H48.1249V31.1933ZM52.4948 34.8542V32.8317H52.8677C52.9958 32.7149 53.1163 32.5501 53.2293 32.3373C53.3442 32.1227 53.4411 31.8364 53.5202 31.4786C53.6012 31.1189 53.6549 30.6623 53.6812 30.1086L53.8055 27.668H57.2405V32.8317H57.9071V34.8429H57.2405V33.4531H53.1615V34.8542H52.4948ZM53.7038 32.8317H56.5738V28.2895H54.4383L54.3479 30.1086C54.3253 30.5304 54.2857 30.9127 54.2292 31.2555C54.1728 31.5963 54.1003 31.8986 54.0117 32.1622C53.9232 32.424 53.8206 32.6471 53.7038 32.8317ZM58.9657 33.4531V27.668H60.9204C61.3743 27.668 61.7452 27.7499 62.0334 27.9138C62.3234 28.0757 62.5381 28.2951 62.6774 28.5719C62.8168 28.8488 62.8865 29.1576 62.8865 29.4985C62.8865 29.8393 62.8168 30.1491 62.6774 30.4278C62.5399 30.7065 62.3272 30.9287 62.039 31.0944C61.7509 31.2583 61.3818 31.3402 60.9317 31.3402H59.5306V30.7188H60.9091C61.2198 30.7188 61.4694 30.6651 61.6577 30.5577C61.846 30.4504 61.9825 30.3054 62.0673 30.1227C62.1539 29.9382 62.1972 29.7301 62.1972 29.4985C62.1972 29.2668 62.1539 29.0597 62.0673 28.877C61.9825 28.6943 61.8451 28.5512 61.6549 28.4476C61.4647 28.3422 61.2123 28.2895 60.8978 28.2895H59.6662V33.4531H58.9657ZM68.8961 30.5606C68.8961 31.1707 68.786 31.698 68.5656 32.1424C68.3453 32.5869 68.0431 32.9296 67.6589 33.1706C67.2747 33.4117 66.836 33.5322 66.3426 33.5322C65.8492 33.5322 65.4104 33.4117 65.0262 33.1706C64.642 32.9296 64.3398 32.5869 64.1195 32.1424C63.8991 31.698 63.789 31.1707 63.789 30.5606C63.789 29.9504 63.8991 29.4231 64.1195 28.9787C64.3398 28.5343 64.642 28.1915 65.0262 27.9505C65.4104 27.7094 65.8492 27.5889 66.3426 27.5889C66.836 27.5889 67.2747 27.7094 67.6589 27.9505C68.0431 28.1915 68.3453 28.5343 68.5656 28.9787C68.786 29.4231 68.8961 29.9504 68.8961 30.5606ZM68.2182 30.5606C68.2182 30.0596 68.1344 29.6369 67.9668 29.2922C67.8011 28.9476 67.576 28.6868 67.2917 28.5098C67.0092 28.3328 66.6928 28.2443 66.3426 28.2443C65.9923 28.2443 65.675 28.3328 65.3906 28.5098C65.1081 28.6868 64.8831 28.9476 64.7155 29.2922C64.5498 29.6369 64.4669 30.0596 64.4669 30.5606C64.4669 31.0615 64.5498 31.4843 64.7155 31.8289C64.8831 32.1735 65.1081 32.4343 65.3906 32.6113C65.675 32.7884 65.9923 32.8769 66.3426 32.8769C66.6928 32.8769 67.0092 32.7884 67.2917 32.6113C67.576 32.4343 67.8011 32.1735 67.9668 31.8289C68.1344 31.4843 68.2182 31.0615 68.2182 30.5606ZM70.0741 33.4531V27.668H72.0966C72.4996 27.668 72.832 27.7377 73.0938 27.877C73.3555 28.0145 73.5504 28.2 73.6785 28.4335C73.8065 28.6651 73.8706 28.9222 73.8706 29.2047C73.8706 29.4533 73.8263 29.6585 73.7378 29.8205C73.6512 29.9824 73.5363 30.1105 73.3932 30.2046C73.2519 30.2988 73.0985 30.3685 72.9327 30.4137V30.4702C73.1098 30.4815 73.2877 30.5436 73.4666 30.6566C73.6455 30.7696 73.7952 30.9315 73.9158 31.1425C74.0363 31.3534 74.0965 31.6114 74.0965 31.9165C74.0965 32.2065 74.0306 32.4673 73.8988 32.6989C73.767 32.9305 73.5589 33.1142 73.2745 33.2497C72.9902 33.3853 72.6201 33.4531 72.1644 33.4531H70.0741ZM70.7746 32.8317H72.1644C72.622 32.8317 72.9469 32.7432 73.1389 32.5661C73.3329 32.3872 73.4299 32.1707 73.4299 31.9165C73.4299 31.7206 73.38 31.5398 73.2802 31.3741C73.1804 31.2065 73.0382 31.0728 72.8536 30.973C72.6691 30.8713 72.4506 30.8204 72.1983 30.8204H70.7746V32.8317ZM70.7746 30.2103H72.074C72.2849 30.2103 72.4751 30.1689 72.6446 30.086C72.816 30.0031 72.9516 29.8864 73.0514 29.7357C73.1531 29.5851 73.2039 29.4081 73.2039 29.2047C73.2039 28.9504 73.1154 28.7348 72.9384 28.5578C72.7614 28.3789 72.4808 28.2895 72.0966 28.2895H70.7746V30.2103ZM80.1288 30.5606C80.1288 31.1707 80.0187 31.698 79.7983 32.1424C79.578 32.5869 79.2758 32.9296 78.8916 33.1706C78.5074 33.4117 78.0686 33.5322 77.5752 33.5322C77.0819 33.5322 76.6431 33.4117 76.2589 33.1706C75.8747 32.9296 75.5725 32.5869 75.3522 32.1424C75.1318 31.698 75.0217 31.1707 75.0217 30.5606C75.0217 29.9504 75.1318 29.4231 75.3522 28.9787C75.5725 28.5343 75.8747 28.1915 76.2589 27.9505C76.6431 27.7094 77.0819 27.5889 77.5752 27.5889C78.0686 27.5889 78.5074 27.7094 78.8916 27.9505C79.2758 28.1915 79.578 28.5343 79.7983 28.9787C80.0187 29.4231 80.1288 29.9504 80.1288 30.5606ZM79.4509 30.5606C79.4509 30.0596 79.3671 29.6369 79.1995 29.2922C79.0338 28.9476 78.8087 28.6868 78.5244 28.5098C78.2419 28.3328 77.9255 28.2443 77.5752 28.2443C77.225 28.2443 76.9077 28.3328 76.6233 28.5098C76.3408 28.6868 76.1158 28.9476 75.9482 29.2922C75.7825 29.6369 75.6996 30.0596 75.6996 30.5606C75.6996 31.0615 75.7825 31.4843 75.9482 31.8289C76.1158 32.1735 76.3408 32.4343 76.6233 32.6113C76.9077 32.7884 77.225 32.8769 77.5752 32.8769C77.9255 32.8769 78.2419 32.7884 78.5244 32.6113C78.8087 32.4343 79.0338 32.1735 79.1995 31.8289C79.3671 31.4843 79.4509 31.0615 79.4509 30.5606ZM81.3068 33.4531V27.668H84.7982V28.2895H82.0073V30.2442H84.6174V30.8656H82.0073V32.8317H84.8434V33.4531H81.3068ZM88.5353 33.4531H87.8009L89.9251 27.668H90.6483L92.7725 33.4531H92.0381L90.3093 28.5832H90.2641L88.5353 33.4531ZM88.8065 31.1933H91.7669V31.8148H88.8065V31.1933ZM97.165 27.668V28.2895H94.3741V33.4531H93.6736V27.668H97.165ZM98.249 33.4531V27.668H101.74V28.2895H98.9496V30.2442H101.56V30.8656H98.9496V32.8317H101.786V33.4531H98.249ZM103.003 33.4531V27.668H103.704V30.2442H106.788V27.668H107.489V33.4531H106.788V30.8656H103.704V33.4531H103.003ZM113.547 29.4759H112.846C112.805 29.2744 112.732 29.0973 112.628 28.9448C112.527 28.7923 112.403 28.6642 112.256 28.5606C112.111 28.4552 111.95 28.3761 111.773 28.3233C111.596 28.2706 111.411 28.2443 111.219 28.2443C110.869 28.2443 110.551 28.3328 110.267 28.5098C109.985 28.6868 109.759 28.9476 109.592 29.2922C109.426 29.6369 109.343 30.0596 109.343 30.5606C109.343 31.0615 109.426 31.4843 109.592 31.8289C109.759 32.1735 109.985 32.4343 110.267 32.6113C110.551 32.7884 110.869 32.8769 111.219 32.8769C111.411 32.8769 111.596 32.8505 111.773 32.7978C111.95 32.745 112.111 32.6669 112.256 32.5633C112.403 32.4579 112.527 32.3289 112.628 32.1763C112.732 32.0219 112.805 31.8449 112.846 31.6453H113.547C113.494 31.9409 113.398 32.2055 113.258 32.439C113.119 32.6725 112.946 32.8712 112.739 33.0351C112.532 33.197 112.299 33.3204 112.041 33.4051C111.785 33.4898 111.511 33.5322 111.219 33.5322C110.726 33.5322 110.287 33.4117 109.903 33.1706C109.518 32.9296 109.216 32.5869 108.996 32.1424C108.776 31.698 108.665 31.1707 108.665 30.5606C108.665 29.9504 108.776 29.4231 108.996 28.9787C109.216 28.5343 109.518 28.1915 109.903 27.9505C110.287 27.7094 110.726 27.5889 111.219 27.5889C111.511 27.5889 111.785 27.6313 112.041 27.716C112.299 27.8008 112.532 27.9251 112.739 28.0889C112.946 28.2508 113.119 28.4486 113.258 28.6821C113.398 28.9137 113.494 29.1783 113.547 29.4759ZM114.362 28.2895V27.668H118.701V28.2895H116.882V33.4531H116.181V28.2895H114.362ZM119.782 33.4531V27.668H121.805C122.208 27.668 122.54 27.7377 122.802 27.877C123.064 28.0145 123.259 28.2 123.387 28.4335C123.515 28.6651 123.579 28.9222 123.579 29.2047C123.579 29.4533 123.534 29.6585 123.446 29.8205C123.359 29.9824 123.244 30.1105 123.101 30.2046C122.96 30.2988 122.807 30.3685 122.641 30.4137V30.4702C122.818 30.4815 122.996 30.5436 123.175 30.6566C123.354 30.7696 123.503 30.9315 123.624 31.1425C123.744 31.3534 123.805 31.6114 123.805 31.9165C123.805 32.2065 123.739 32.4673 123.607 32.6989C123.475 32.9305 123.267 33.1142 122.983 33.2497C122.698 33.3853 122.328 33.4531 121.873 33.4531H119.782ZM120.483 32.8317H121.873C122.33 32.8317 122.655 32.7432 122.847 32.5661C123.041 32.3872 123.138 32.1707 123.138 31.9165C123.138 31.7206 123.088 31.5398 122.988 31.3741C122.889 31.2065 122.746 31.0728 122.562 30.973C122.377 30.8713 122.159 30.8204 121.906 30.8204H120.483V32.8317ZM120.483 30.2103H121.782C121.993 30.2103 122.183 30.1689 122.353 30.086C122.524 30.0031 122.66 29.8864 122.76 29.7357C122.861 29.5851 122.912 29.4081 122.912 29.2047C122.912 28.9504 122.824 28.7348 122.647 28.5578C122.47 28.3789 122.189 28.2895 121.805 28.2895H120.483V30.2103ZM129.837 30.5606C129.837 31.1707 129.727 31.698 129.506 32.1424C129.286 32.5869 128.984 32.9296 128.6 33.1706C128.216 33.4117 127.777 33.5322 127.283 33.5322C126.79 33.5322 126.351 33.4117 125.967 33.1706C125.583 32.9296 125.281 32.5869 125.06 32.1424C124.84 31.698 124.73 31.1707 124.73 30.5606C124.73 29.9504 124.84 29.4231 125.06 28.9787C125.281 28.5343 125.583 28.1915 125.967 27.9505C126.351 27.7094 126.79 27.5889 127.283 27.5889C127.777 27.5889 128.216 27.7094 128.6 27.9505C128.984 28.1915 129.286 28.5343 129.506 28.9787C129.727 29.4231 129.837 29.9504 129.837 30.5606ZM129.159 30.5606C129.159 30.0596 129.075 29.6369 128.908 29.2922C128.742 28.9476 128.517 28.6868 128.233 28.5098C127.95 28.3328 127.634 28.2443 127.283 28.2443C126.933 28.2443 126.616 28.3328 126.331 28.5098C126.049 28.6868 125.824 28.9476 125.656 29.2922C125.491 29.6369 125.408 30.0596 125.408 30.5606C125.408 31.0615 125.491 31.4843 125.656 31.8289C125.824 32.1735 126.049 32.4343 126.331 32.6113C126.616 32.7884 126.933 32.8769 127.283 32.8769C127.634 32.8769 127.95 32.7884 128.233 32.6113C128.517 32.4343 128.742 32.1735 128.908 31.8289C129.075 31.4843 129.159 31.0615 129.159 30.5606Z" fill="url(#paint0_linear_1030_3453)"/>
<path d="M43.209 19V4.44523H48.6671C49.7852 4.44523 50.7233 4.65369 51.4814 5.07063C52.2442 5.48756 52.8198 6.06085 53.2083 6.79048C53.6016 7.51537 53.7982 8.33977 53.7982 9.26365C53.7982 10.197 53.6016 11.0261 53.2083 11.751C52.8151 12.4759 52.2347 13.0469 51.4671 13.4638C50.6996 13.876 49.7544 14.0821 48.6315 14.0821H45.0141V11.9145H48.2762C48.93 11.9145 49.4654 11.8008 49.8823 11.5734C50.2993 11.346 50.6072 11.0333 50.8062 10.6353C51.0099 10.2373 51.1118 9.78008 51.1118 9.26365C51.1118 8.74722 51.0099 8.29239 50.8062 7.89914C50.6072 7.5059 50.2969 7.20031 49.8752 6.98236C49.4583 6.75968 48.9205 6.64834 48.262 6.64834H45.8456V19H43.209ZM56.0884 19V4.44523H65.5546V6.65545H58.725V10.6068H65.0643V12.8171H58.725V16.7898H65.6115V19H56.0884ZM68.2446 4.44523H70.8599V14.3664H70.9949L77.8388 4.44523H80.2054V19H77.5687V9.08598H77.4479L70.5827 19H68.2446V4.44523ZM75.6357 0.692825H77.5616C77.5616 1.52195 77.2608 2.19473 76.6591 2.71116C76.0621 3.22285 75.2519 3.4787 74.2285 3.4787C73.2146 3.4787 72.4068 3.22285 71.8051 2.71116C71.2081 2.19473 70.912 1.52195 70.9167 0.692825H72.8285C72.8285 1.03395 72.9327 1.33955 73.1412 1.6096C73.3544 1.87493 73.7168 2.00759 74.2285 2.00759C74.7307 2.00759 75.0884 1.87493 75.3016 1.6096C75.5196 1.34428 75.6309 1.03869 75.6357 0.692825ZM82.4387 6.65545V4.44523H94.0512V6.65545H89.5526V19H86.9373V6.65545H82.4387ZM96.2899 4.44523H98.9052V14.3664H99.0402L105.884 4.44523H108.251V19H105.614V9.08598H105.493L98.628 19H96.2899V4.44523ZM111.124 19V4.44523H113.76V10.6068H120.505V4.44523H123.148V19H120.505V12.8171H113.76V19H111.124ZM135.376 4.44523V6.65545H128.653V19H126.016V4.44523H135.376Z" fill="url(#paint1_linear_1030_3453)"/>
<path d="M16.9381 33.6148L4.42322 21.3194C3.55828 20.4697 4.18363 19 5.39568 19.034L24.3936 19.5673C25.1448 19.5884 25.7652 18.9852 25.7652 18.2336V10.9336" stroke="url(#paint2_linear_1030_3453)" stroke-width="6.67094"/>
<path d="M25.7697 1.58984L35.7663 11.5962H15.773L25.7697 1.58984Z" fill="url(#paint3_linear_1030_3453)"/>
<defs>
<linearGradient id="paint0_linear_1030_3453" x1="37.734" y1="4.81676" x2="61.3285" y2="74.6517" gradientUnits="userSpaceOnUse">
<stop stop-color="#FFD600"/>
<stop offset="1" stop-color="#FFC350"/>
</linearGradient>
<linearGradient id="paint1_linear_1030_3453" x1="37.6037" y1="-49.5273" x2="128.316" y2="65.952" gradientUnits="userSpaceOnUse">
<stop stop-color="#FFD600"/>
<stop offset="1" stop-color="#FFC350"/>
</linearGradient>
<linearGradient id="paint2_linear_1030_3453" x1="0.970173" y1="-35.8721" x2="53.8307" y2="-18.286" gradientUnits="userSpaceOnUse">
<stop stop-color="#FFD600"/>
<stop offset="1" stop-color="#FFC350"/>
</linearGradient>
<linearGradient id="paint3_linear_1030_3453" x1="13.2262" y1="-25.9429" x2="57.0358" y2="-1.87331" gradientUnits="userSpaceOnUse">
<stop stop-color="#FFD600"/>
<stop offset="1" stop-color="#FFC350"/>
</linearGradient>
</defs>
</svg>
