<svg width="33" height="33" viewBox="0 0 33 33" fill="none" xmlns="http://www.w3.org/2000/svg">
<path d="M16.1751 15.9994C19.4432 15.9994 22.0924 13.5371 22.0924 10.4997C22.0924 7.46231 19.4432 5 16.1751 5C12.9071 5 10.2578 7.46231 10.2578 10.4997C10.2578 13.5371 12.9071 15.9994 16.1751 15.9994Z" stroke="#00D8FF" stroke-width="2" stroke-linecap="round" stroke-linejoin="round"/>
<path d="M6 27.0004C6 22.7436 10.5563 19.3008 16.1659 19.3008C17.3021 19.3008 18.4027 19.4438 19.4323 19.7078" stroke="#00D8FF" stroke-width="2" stroke-linecap="round" stroke-linejoin="round"/>
<path d="M27.9989 22.599C27.9989 22.951 27.9516 23.2919 27.8569 23.6219C27.7504 24.0619 27.5611 24.4909 27.3126 24.8649C26.496 26.1408 24.993 26.9988 23.2651 26.9988C22.0461 26.9988 20.9455 26.5698 20.1171 25.8658C19.762 25.5798 19.4543 25.2389 19.2176 24.8649C18.7798 24.2049 18.5312 23.4239 18.5312 22.599C18.5312 21.4111 19.0401 20.3221 19.8686 19.5302C20.7325 18.7052 21.9396 18.1992 23.2651 18.1992C24.6616 18.1992 25.9279 18.7602 26.78 19.6622C27.5374 20.4431 27.9989 21.477 27.9989 22.599Z" stroke="#00D8FF" stroke-width="2" stroke-miterlimit="10" stroke-linecap="round" stroke-linejoin="round"/>
<path d="M25.0267 22.5801H21.5" stroke="#00D8FF" stroke-width="2" stroke-miterlimit="10" stroke-linecap="round" stroke-linejoin="round"/>
<path d="M23.2656 20.9727V24.2615" stroke="#00D8FF" stroke-width="2" stroke-miterlimit="10" stroke-linecap="round" stroke-linejoin="round"/>
<path d="M1 11.8401C1 8.04569 1 6.1485 1.73844 4.69924C2.38798 3.42443 3.42443 2.38798 4.69924 1.73844C6.1485 1 8.04569 1 11.8401 1H20.6476C24.442 1 26.3392 1 27.7885 1.73844C29.0633 2.38798 30.0997 3.42443 30.7493 4.69924C31.4877 6.1485 31.4877 8.04569 31.4877 11.8401V20.6499C31.4877 24.4443 31.4877 26.3415 30.7493 27.7908C30.0997 29.0656 29.0633 30.102 27.7885 30.7516C26.3392 31.49 24.442 31.49 20.6476 31.49H11.8401C8.04569 31.49 6.1485 31.49 4.69924 30.7516C3.42443 30.102 2.38798 29.0656 1.73844 27.7908C1 26.3415 1 24.4443 1 20.6499V11.8401Z" stroke="#00D8FF" stroke-width="1.27032"/>
</svg>
