<svg width="24" height="28" viewBox="0 0 24 28" fill="none" xmlns="http://www.w3.org/2000/svg">
<path d="M4.05 23C3.75 23 3.5 22.9 3.3 22.7C3.1 22.5 3 22.25 3 21.95V17.9C3 17.6667 3.075 17.4623 3.225 17.287C3.375 17.1123 3.56667 17 3.8 16.95L7.25 16.25C7.48333 16.2167 7.721 16.2373 7.963 16.312C8.20433 16.3873 8.4 16.5 8.55 16.65L10.9 19C12.1667 18.2333 13.325 17.325 14.375 16.275C15.425 15.225 16.3 14.1 17 12.9L14.6 10.45C14.45 10.3 14.354 10.129 14.312 9.937C14.2707 9.74567 14.2667 9.53333 14.3 9.3L14.95 5.8C14.9833 5.56667 15.0917 5.375 15.275 5.225C15.4583 5.075 15.6667 5 15.9 5H19.95C20.25 5 20.5 5.1 20.7 5.3C20.9 5.5 21 5.75 21 6.05C21 8.2 20.5207 10.2957 19.562 12.337C18.604 14.379 17.3373 16.1873 15.762 17.762C14.1873 19.3373 12.3793 20.604 10.338 21.562C8.296 22.5207 6.2 23 4.05 23Z" fill="#D6D6D6"/>
</svg>
