<svg width="33" height="32" viewBox="0 0 33 32" fill="none" xmlns="http://www.w3.org/2000/svg">
<path d="M1.22656 11.6037C1.22656 7.80936 1.22656 5.91217 1.965 4.46291C2.61455 3.1881 3.651 2.15165 4.9258 1.50211C6.37506 0.763672 8.27226 0.763672 12.0666 0.763672H20.8742C24.6686 0.763672 26.5658 0.763672 28.015 1.50211C29.2898 2.15165 30.3263 3.1881 30.9758 4.46291C31.7143 5.91217 31.7143 7.80937 31.7143 11.6037V20.4113C31.7143 24.2057 31.7143 26.1029 30.9758 27.5521C30.3263 28.827 29.2898 29.8634 28.015 30.5129C26.5658 31.2514 24.6686 31.2514 20.8742 31.2514H12.0666C8.27225 31.2514 6.37506 31.2514 4.9258 30.5129C3.651 29.8634 2.61455 28.827 1.965 27.5521C1.22656 26.1029 1.22656 24.2057 1.22656 20.4113V11.6037Z" stroke="#00D8FF" stroke-width="1.27032"/>
<path fill-rule="evenodd" clip-rule="evenodd" d="M11.0416 10.8801C12.5884 9.6207 14.8456 9.87595 16.083 11.4502V11.4502C16.2804 11.7012 16.6606 11.7012 16.8579 11.4502V11.4502C18.0954 9.87595 20.3526 9.6207 21.8994 10.8801C23.4462 12.1396 23.697 14.4367 22.4596 16.011L17.1363 22.7831C16.7972 23.2145 16.1438 23.2145 15.8047 22.7831L10.4814 16.011C9.24395 14.4367 9.49474 12.1396 11.0416 10.8801Z" stroke="url(#paint0_linear_539_3034)" stroke-width="1.27032" stroke-linecap="round" stroke-linejoin="round"/>
<path d="M16.083 11.4502C14.8456 9.87595 12.5884 9.6207 11.0416 10.8801C9.49474 12.1396 9.24395 14.4367 10.4814 16.011L13.476 19.8206" stroke="#00D8FF" stroke-width="1.27032" stroke-linecap="round" stroke-linejoin="round"/>
<defs>
<linearGradient id="paint0_linear_539_3034" x1="20.7048" y1="13.4676" x2="17.7407" y2="9.65664" gradientUnits="userSpaceOnUse">
<stop offset="0.268065" stop-color="#00D8FF"/>
<stop offset="1" stop-color="#00D8FF" stop-opacity="0"/>
</linearGradient>
</defs>
</svg>
