<svg width="33" height="33" viewBox="0 0 33 33" fill="none" xmlns="http://www.w3.org/2000/svg">
<path d="M24.089 30.7217V30.7217C24.8755 30.7217 25.2687 30.7217 25.6 30.6891C28.8166 30.3722 31.3615 27.8273 31.6783 24.6107C31.7109 24.2795 31.7109 23.8862 31.7109 23.0998V9.54966C31.7109 8.76318 31.7109 8.36994 31.6783 8.03871C31.3615 4.82207 28.8166 2.27717 25.6 1.96036C25.2687 1.92773 24.8755 1.92773 24.089 1.92773V1.92773" stroke="#00D8FF" stroke-width="1.27032" stroke-linecap="round"/>
<path d="M24.0923 31.5678H12.0666C8.27226 31.5678 6.37506 31.5678 4.9258 30.8294C3.651 30.1798 2.61455 29.1434 1.965 27.8686C1.22656 26.4193 1.22656 24.5221 1.22656 20.7277V11.9201C1.22656 8.12577 1.22656 6.22858 1.965 4.77932C2.61455 3.50451 3.651 2.46806 4.9258 1.81851C6.37506 1.08008 8.27226 1.08008 12.0666 1.08008H24.0923" stroke="url(#paint0_linear_539_3033)" stroke-width="1.27032" stroke-linecap="round" stroke-linejoin="round"/>
<path d="M1.22656 16.3239V11.9201C1.22656 8.12577 1.22656 6.22858 1.965 4.77932C2.61455 3.50451 3.651 2.46806 4.9258 1.81851C6.37506 1.08008 8.27226 1.08008 12.0666 1.08008H24.0923" stroke="#00D8FF" stroke-width="1.27032" stroke-linecap="round" stroke-linejoin="round"/>
<path d="M24.0938 31.5684V1.08065" stroke="#00D8FF" stroke-width="1.27032" stroke-linecap="round" stroke-linejoin="round"/>
<path d="M24.0938 8.70117H31.7157" stroke="#00D8FF" stroke-width="1.27032"/>
<path d="M24.0938 16.3242H31.7157" stroke="#00D8FF" stroke-width="1.27032"/>
<path d="M24.0938 23.9453H31.7157" stroke="#00D8FF" stroke-width="1.27032"/>
<circle cx="13.0797" cy="12.0895" r="2.54064" stroke="#00D8FF" stroke-width="1.27032"/>
<path d="M19.0126 19.7106C19.0126 21.8933 16.3585 23.0981 13.0844 23.0981C9.81038 23.0981 7.15625 21.8933 7.15625 19.7106C7.15625 17.5279 9.81038 17.1699 13.0844 17.1699C16.3585 17.1699 19.0126 17.5279 19.0126 19.7106Z" stroke="#00D8FF" stroke-width="1.27032"/>
<defs>
<linearGradient id="paint0_linear_539_3033" x1="18.5876" y1="31.1444" x2="14.7972" y2="1.82602" gradientUnits="userSpaceOnUse">
<stop stop-color="#00D8FF"/>
<stop offset="0.60713" stop-color="#00D8FF" stop-opacity="0"/>
</linearGradient>
</defs>
</svg>
