<svg width="32" height="33" viewBox="0 0 32 33" fill="none" xmlns="http://www.w3.org/2000/svg">
<path d="M14.2953 2.08243C14.6461 2.08243 14.9304 1.79806 14.9304 1.44727C14.9304 1.09648 14.6461 0.812105 14.2953 0.812105V2.08243ZM14.2953 31.2998C13.9445 31.2998 13.6601 31.5842 13.6601 31.935C13.6601 32.2858 13.9445 32.5701 14.2953 32.5701V31.2998ZM14.2922 31.921L14.9234 31.8509C14.9209 31.8281 14.9172 31.8056 14.9122 31.7832L14.2922 31.921ZM14.2922 1.46122L14.9122 1.59901C14.9172 1.57668 14.9209 1.5541 14.9234 1.53136L14.2922 1.46122ZM13.9031 3.21211L13.283 3.07433L13.9031 3.21211ZM8.07956 3.65709L8.39714 4.20715L8.07956 3.65709ZM5.36243 8.1452L5.55312 7.53934L5.36243 8.1452ZM2.94503 11.4544L2.51569 11.9225L2.94503 11.4544ZM2.62311 9.35931L3.17317 9.67689L2.62311 9.35931ZM2.06852 14.7026L1.93073 14.0826L2.06852 14.7026ZM2.06852 18.6796L1.93074 19.2996L2.06852 18.6796ZM2.5103 18.7778L2.64808 18.1577L2.5103 18.7778ZM3.27288 21.6243L2.84354 21.1562L3.27288 21.6243ZM2.61995 24.023L3.17001 23.7054L2.61995 24.023ZM2.94187 21.9279L3.37121 22.396L2.94187 21.9279ZM4.93037 25.3721L5.12107 25.978L4.93037 25.3721ZM2.95502 24.6033L2.40496 24.9209L2.95502 24.6033ZM5.36355 25.2358L5.17286 24.6299L5.36355 25.2358ZM8.07445 29.7251L7.75687 30.2752L8.07445 29.7251ZM11.0526 29.4083L11.5206 29.8376L11.0526 29.4083ZM14.2935 31.9334L14.9248 31.8633L14.2935 31.9334ZM17.6831 31.9335L18.3032 32.0713L17.6831 31.9335ZM18.0744 30.1727L17.4544 30.0349L18.0744 30.1727ZM23.3234 30.0602L23.641 30.6103L23.3234 30.0602ZM21.2283 29.7383L21.6964 29.3089L21.2283 29.7383ZM24.5363 27.317L23.9304 27.5077L24.5363 27.317ZM29.0276 24.6032L29.5777 24.9207L29.0276 24.6032ZM27.0523 25.3719L27.243 24.7661L27.0523 25.3719ZM29.3627 24.0228L28.8127 23.7052L29.3627 24.0228ZM28.7071 21.6217L29.1365 21.1536L28.7071 21.6217ZM29.9036 18.6796L29.7658 18.0596L29.9036 18.6796ZM29.9036 14.7026L30.0414 14.0826L29.9036 14.7026ZM29.4704 14.6063L29.3327 15.2264L29.4704 14.6063ZM29.3596 9.35949L28.8095 9.67707L29.3596 9.35949ZM27.0491 8.01038L26.8584 7.40452L27.0491 8.01038ZM29.0245 8.77913L29.5746 8.46155L29.0245 8.77913ZM23.8987 3.65705L24.2163 3.10699L23.8987 3.65705ZM20.9206 3.97383L20.4525 3.54449L20.9206 3.97383ZM11.058 3.97431L10.59 4.40365L11.058 3.97431ZM8.65992 3.32201L8.9775 3.87208L8.65992 3.32201ZM17.6831 1.44878L18.3032 1.31099L17.6831 1.44878ZM21.2232 3.6439L21.6913 4.07325L21.2232 3.6439ZM23.3183 3.32198L23.6359 2.77191L23.3183 3.32198ZM7.44592 6.06171L6.84007 6.25241L7.44592 6.06171ZM14.2935 1.44881L13.6623 1.37867L14.2935 1.44881ZM17.6812 0.812105H14.2953V2.08243H17.6812V0.812105ZM18.6949 3.07367L18.3032 1.31099L17.0631 1.58657L17.4548 3.34924L18.6949 3.07367ZM20.7552 3.21456L20.4525 3.54449L21.3887 4.40318L21.6913 4.07325L20.7552 3.21456ZM24.2163 3.10699L23.6359 2.77191L23.0007 3.87204L23.5811 4.20712L24.2163 3.10699ZM25.1388 6.25023L25.2733 5.8231L24.0616 5.44171L23.9271 5.86884L25.1388 6.25023ZM26.8584 7.40452L26.4285 7.53985L26.8099 8.75157L27.2398 8.61624L26.8584 7.40452ZM29.9096 9.04191L29.5746 8.46155L28.4744 9.09671L28.8095 9.67707L29.9096 9.04191ZM29.1366 12.2257L29.467 11.9226L28.6083 10.9865L28.2779 11.2895L29.1366 12.2257ZM30.0414 14.0826L29.6082 13.9863L29.3327 15.2264L29.7658 15.3226L30.0414 14.0826ZM31.8651 17.0262V16.356H30.5947V17.0262H31.8651ZM29.6073 19.3961L30.0414 19.2996L29.7658 18.0596L29.3317 18.156L29.6073 19.3961ZM29.4701 21.4597L29.1365 21.1536L28.2778 22.0898L28.6115 22.3958L29.4701 21.4597ZM29.5777 24.9207L29.9128 24.3404L28.8127 23.7052L28.4776 24.2856L29.5777 24.9207ZM26.4274 25.8411L26.8616 25.9778L27.243 24.7661L26.8087 24.6294L26.4274 25.8411ZM25.2784 27.5591L25.1422 27.1263L23.9304 27.5077L24.0667 27.9405L25.2784 27.5591ZM23.641 30.6103L24.2214 30.2752L23.5862 29.1751L23.0058 29.5101L23.641 30.6103ZM20.458 29.8381L20.7603 30.1676L21.6964 29.3089L21.3941 28.9794L20.458 29.8381ZM18.3032 32.0713L18.6944 30.3105L17.4544 30.0349L17.0631 31.7957L18.3032 32.0713ZM14.2953 32.5701H17.6812V31.2998H14.2953V32.5701ZM13.6609 31.9912L13.6623 32.0036L14.9248 31.8633L14.9234 31.8509L13.6609 31.9912ZM13.2835 30.3098L13.6721 32.0588L14.9122 31.7832L14.5235 30.0343L13.2835 30.3098ZM11.218 30.1676L11.5206 29.8376L10.5845 28.9789L10.2818 29.3089L11.218 30.1676ZM7.75687 30.2752L8.33724 30.6102L8.9724 29.5101L8.39203 29.175L7.75687 30.2752ZM6.83674 27.1241L6.69985 27.5591L7.91157 27.9404L8.04846 27.5055L6.83674 27.1241ZM5.12107 25.978L5.55424 25.8416L5.17286 24.6299L4.73968 24.7662L5.12107 25.978ZM2.06988 24.3406L2.40496 24.9209L3.50509 24.2858L3.17001 23.7054L2.06988 24.3406ZM2.84354 21.1562L2.51253 21.4598L3.37121 22.396L3.70223 22.0924L2.84354 21.1562ZM1.93074 19.2996L2.37251 19.3978L2.64808 18.1577L2.20631 18.0596L1.93074 19.2996ZM0.107027 16.356V17.0262H1.37735V16.356H0.107027ZM2.37156 13.9846L1.93073 14.0826L2.20631 15.3226L2.64713 15.2247L2.37156 13.9846ZM2.51569 11.9225L2.84343 12.2231L3.70212 11.2869L3.37438 10.9863L2.51569 11.9225ZM2.40812 8.46137L2.07304 9.04173L3.17317 9.67689L3.50825 9.09653L2.40812 8.46137ZM5.55312 7.53934L5.12423 7.40434L4.74284 8.61606L5.17174 8.75106L5.55312 7.53934ZM6.70495 5.82313L6.84007 6.25241L8.05178 5.87102L7.91667 5.44175L6.70495 5.82313ZM8.34234 2.77195L7.76198 3.10702L8.39714 4.20715L8.9775 3.87208L8.34234 2.77195ZM11.5261 3.54496L11.2231 3.21459L10.2869 4.07328L10.59 4.40365L11.5261 3.54496ZM13.6721 1.32344L13.283 3.07433L14.5231 3.3499L14.9122 1.59901L13.6721 1.32344ZM13.6623 1.37867L13.6609 1.39108L14.9234 1.53136L14.9248 1.51895L13.6623 1.37867ZM12.8599 5.03277C13.6486 4.8216 14.3326 4.20712 14.5231 3.3499L13.283 3.07433C13.2083 3.41059 12.9237 3.70062 12.5314 3.80567L12.8599 5.03277ZM7.91667 5.44175C7.76771 4.96847 7.96745 4.45524 8.39714 4.20715L7.76198 3.10702C6.81665 3.65281 6.37724 4.78193 6.70495 5.82313L7.91667 5.44175ZM5.17174 8.75106C6.00672 9.01386 6.87791 8.73612 7.45726 8.15688L6.5591 7.25853C6.27393 7.54365 5.88424 7.64356 5.55312 7.53934L5.17174 8.75106ZM3.50825 9.09653C3.75633 8.66684 4.26957 8.4671 4.74284 8.61606L5.12423 7.40434C4.08302 7.07663 2.9539 7.51605 2.40812 8.46137L3.50825 9.09653ZM3.37438 10.9863C3.00873 10.6509 2.92509 10.1066 3.17317 9.67689L2.07304 9.04173C1.52726 9.98705 1.71128 11.1846 2.51569 11.9225L3.37438 10.9863ZM4.33181 13.5598C4.54447 12.766 4.34614 11.8777 3.70212 11.2869L2.84343 12.2231C3.10099 12.4593 3.20867 12.8432 3.10475 13.2311L4.33181 13.5598ZM2.64713 15.2247C3.50523 15.034 4.12033 14.3492 4.33181 13.5598L3.10475 13.2311C2.9994 13.6243 2.70868 13.9097 2.37156 13.9846L2.64713 15.2247ZM1.37735 16.356C1.37735 15.8599 1.72196 15.4303 2.20631 15.3226L1.93073 14.0826C0.865164 14.3194 0.107027 15.2645 0.107027 16.356H1.37735ZM2.20631 18.0596C1.72196 17.9519 1.37735 17.5223 1.37735 17.0262H0.107027C0.107027 18.1177 0.865167 19.0628 1.93074 19.2996L2.20631 18.0596ZM4.33153 19.8215C4.12027 19.0326 3.50558 18.3483 2.64808 18.1577L2.37251 19.3978C2.70905 19.4726 2.9993 19.7574 3.10445 20.1501L4.33153 19.8215ZM3.70223 22.0924C4.34569 21.5021 4.54394 20.6146 4.33153 19.8215L3.10445 20.1501C3.20815 20.5373 3.10062 20.9204 2.84354 21.1562L3.70223 22.0924ZM3.17001 23.7054C2.92193 23.2757 3.00557 22.7314 3.37121 22.396L2.51253 21.4598C1.70811 22.1977 1.5241 23.3952 2.06988 24.3406L3.17001 23.7054ZM4.73968 24.7662C4.26641 24.9152 3.75317 24.7155 3.50509 24.2858L2.40496 24.9209C2.95074 25.8662 4.07986 26.3057 5.12107 25.978L4.73968 24.7662ZM7.45531 25.2235C6.87682 24.6448 6.00675 24.3674 5.17286 24.6299L5.55424 25.8416C5.88427 25.7377 6.27273 25.8373 6.55695 26.1216L7.45531 25.2235ZM8.04846 27.5055C8.31086 26.6718 8.03366 25.802 7.45531 25.2235L6.55695 26.1216C6.84109 26.4058 6.94059 26.7942 6.83674 27.1241L8.04846 27.5055ZM8.39203 29.175C7.96234 28.927 7.76261 28.4137 7.91157 27.9404L6.69985 27.5591C6.37213 28.6003 6.81155 29.7294 7.75687 30.2752L8.39203 29.175ZM10.2818 29.3089C9.94643 29.6745 9.40209 29.7582 8.9724 29.5101L8.33724 30.6102C9.28256 31.156 10.4801 30.972 11.218 30.1676L10.2818 29.3089ZM12.8582 28.3491C12.0641 28.1363 11.1754 28.3347 10.5845 28.9789L11.5206 29.8376C11.7571 29.5798 12.1412 29.4721 12.5294 29.5761L12.8582 28.3491ZM14.5235 30.0343C14.3328 29.1759 13.6478 28.5606 12.8582 28.3491L12.5294 29.5761C12.9229 29.6815 13.2085 29.9725 13.2835 30.3098L14.5235 30.0343ZM14.2953 31.2998C14.618 31.2998 14.8892 31.5425 14.9248 31.8633L13.6623 32.0036C13.6981 32.3261 13.9707 32.5701 14.2953 32.5701V31.2998ZM17.0631 31.7957C17.1275 31.506 17.3844 31.2998 17.6812 31.2998V32.5701C17.9798 32.5701 18.2384 32.3627 18.3032 32.0713L17.0631 31.7957ZM19.1203 28.3494C18.3304 28.5609 17.6452 29.1763 17.4544 30.0349L18.6944 30.3105C18.7695 29.973 19.0552 29.6819 19.4489 29.5764L19.1203 28.3494ZM23.0058 29.5101C22.5761 29.7582 22.0318 29.6746 21.6964 29.3089L20.7603 30.1676C21.4981 30.972 22.6957 31.1561 23.641 30.6103L23.0058 29.5101ZM24.0667 27.9405C24.2156 28.4137 24.0159 28.927 23.5862 29.1751L24.2214 30.2752C25.1667 29.7294 25.6061 28.6003 25.2784 27.5591L24.0667 27.9405ZM24.5242 25.2235C23.9453 25.8026 23.6678 26.6732 23.9304 27.5077L25.1422 27.1263C25.0381 26.7957 25.1378 26.4065 25.4226 26.1217L24.5242 25.2235ZM26.8087 24.6294C25.9741 24.3667 25.1032 24.6444 24.5242 25.2235L25.4226 26.1217C25.7074 25.8368 26.0966 25.737 26.4274 25.8411L26.8087 24.6294ZM28.4776 24.2856C28.2295 24.7153 27.7163 24.915 27.243 24.7661L26.8616 25.9778C27.9028 26.3055 29.0319 25.8661 29.5777 24.9207L28.4776 24.2856ZM28.6115 22.3958C28.9771 22.7312 29.0607 23.2755 28.8127 23.7052L29.9128 24.3404C30.4586 23.3951 30.2746 22.1975 29.4701 21.4597L28.6115 22.3958ZM27.6485 19.8197C27.4363 20.6126 27.6346 21.4998 28.2778 22.0898L29.1365 21.1536C28.8796 20.918 28.7721 20.5351 28.8757 20.1481L27.6485 19.8197ZM29.3317 18.156C28.4743 18.3466 27.8597 19.0308 27.6485 19.8197L28.8757 20.1481C28.9807 19.7556 29.2709 19.4709 29.6073 19.3961L29.3317 18.156ZM30.5947 17.0262C30.5947 17.5223 30.2501 17.9519 29.7658 18.0596L30.0414 19.2996C31.1069 19.0628 31.8651 18.1177 31.8651 17.0262H30.5947ZM29.7658 15.3226C30.2501 15.4303 30.5947 15.8599 30.5947 16.356H31.8651C31.8651 15.2645 31.1069 14.3194 30.0414 14.0826L29.7658 15.3226ZM27.6483 13.5615C27.8596 14.3509 28.4746 15.0357 29.3327 15.2264L29.6082 13.9863C29.2712 13.9114 28.9806 13.6262 28.8754 13.233L27.6483 13.5615ZM28.8095 9.67707C29.0576 10.1068 28.9739 10.6511 28.6083 10.9865L29.467 11.9226C30.2714 11.1848 30.4554 9.98723 29.9096 9.04191L28.8095 9.67707ZM27.2398 8.61624C27.7131 8.46728 28.2263 8.66702 28.4744 9.09671L29.5746 8.46155C29.0288 7.51623 27.8996 7.07681 26.8584 7.40452L27.2398 8.61624ZM24.5223 8.15681C25.1021 8.73656 25.9741 9.01462 26.8099 8.75157L26.4285 7.53985C26.0966 7.6443 25.7062 7.54414 25.4204 7.25845L24.5223 8.15681ZM23.9271 5.86884C23.664 6.70478 23.9423 7.57693 24.5223 8.15681L25.4204 7.25845C25.1346 6.9727 25.0344 6.58213 25.1388 6.25023L23.9271 5.86884ZM23.5811 4.20712C24.0108 4.4552 24.2105 4.96844 24.0616 5.44171L25.2733 5.8231C25.601 4.78189 25.1616 3.65277 24.2163 3.10699L23.5811 4.20712ZM19.1185 5.03246C19.9115 5.24469 20.7987 5.04642 21.3887 4.40318L20.4525 3.54449C20.2169 3.80142 19.834 3.90892 19.447 3.80533L19.1185 5.03246ZM10.59 4.40365C11.1799 5.04684 12.0671 5.24506 12.8599 5.03277L12.5314 3.80567C12.1445 3.90926 11.7617 3.80181 11.5261 3.54496L10.59 4.40365ZM17.4548 3.34924C17.6453 4.2067 18.3296 4.82131 19.1185 5.03246L19.447 3.80533C19.0544 3.70027 18.7696 3.4101 18.6949 3.07367L17.4548 3.34924ZM8.9775 3.87208C9.4072 3.624 9.95154 3.70764 10.2869 4.07328L11.2231 3.21459C10.4852 2.41018 9.28766 2.22617 8.34234 2.77195L8.9775 3.87208ZM17.6812 2.08243C17.3845 2.08243 17.1275 1.8763 17.0631 1.58657L18.3032 1.31099C18.2384 1.01949 17.9798 0.812105 17.6812 0.812105V2.08243ZM21.6913 4.07325C22.0267 3.7076 22.571 3.62396 23.0007 3.87204L23.6359 2.77191C22.6906 2.22613 21.493 2.41015 20.7552 3.21456L21.6913 4.07325ZM28.2779 11.2895C27.6341 11.88 27.4358 12.768 27.6483 13.5615L28.8754 13.233C28.7716 12.8453 28.8792 12.4618 29.1366 12.2257L28.2779 11.2895ZM21.3941 28.9794C20.8031 28.3351 19.9145 28.1367 19.1203 28.3494L19.4489 29.5764C19.8372 29.4724 20.2215 29.5802 20.458 29.8381L21.3941 28.9794ZM7.45726 8.15688C8.03674 7.57753 8.31465 6.70617 8.05178 5.87102L6.84007 6.25241C6.94431 6.58359 6.84433 6.97336 6.5591 7.25853L7.45726 8.15688ZM14.2953 0.812105C13.9707 0.812105 13.6981 1.05612 13.6623 1.37867L14.9248 1.51895C14.8892 1.83974 14.618 2.08243 14.2953 2.08243V0.812105Z" fill="#00D8FF"/>
<path d="M20.4337 16.6914C20.4337 16.3406 20.718 16.0562 21.0688 16.0562C21.4196 16.0562 21.704 16.3406 21.704 16.6914L20.4337 16.6914ZM15.9875 21.1375C18.4431 21.1375 20.4337 19.1469 20.4337 16.6914L21.704 16.6914C21.704 19.8485 19.1446 22.4079 15.9875 22.4079L15.9875 21.1375ZM11.5414 16.6914C11.5414 19.1469 13.532 21.1375 15.9875 21.1375L15.9875 22.4079C12.8304 22.4079 10.2711 19.8485 10.2711 16.6914L11.5414 16.6914Z" fill="#00D8FF"/>
<path d="M15.9875 21.7719C18.7939 21.7719 21.0688 19.497 21.0688 16.6907C21.0688 15.6308 20.7443 14.6468 20.1893 13.8324C19.2747 12.4905 17.734 11.6094 15.9875 11.6094C13.1812 11.6094 10.9062 13.8843 10.9062 16.6907" stroke="url(#paint0_linear_539_3035)" stroke-width="1.27032" stroke-linecap="round" stroke-linejoin="round"/>
<defs>
<linearGradient id="paint0_linear_539_3035" x1="10.5887" y1="16.3731" x2="21.704" y2="20.184" gradientUnits="userSpaceOnUse">
<stop offset="0.106465" stop-color="#00D8FF"/>
<stop offset="1" stop-color="#00D8FF" stop-opacity="0"/>
</linearGradient>
</defs>
</svg>
