<svg width="61" height="55" viewBox="0 0 61 55" fill="none" xmlns="http://www.w3.org/2000/svg">
<path d="M1.55083 48.2334C1.07294 47.075 0.82768 45.8338 0.829011 44.5807L0.940746 43.5751H20.5611V54.1414H10.3786C9.12306 54.1414 7.87984 53.8938 6.72006 53.4127C5.56029 52.9316 4.50674 52.2266 3.61975 51.3379C2.73275 50.4491 2.0297 49.3942 1.55083 48.2334Z" fill="white" stroke="black" stroke-width="0.28301"/>
<path d="M0.81338 39.7295V28.9462H20.4912V39.7295H0.81338Z" fill="white" stroke="black" stroke-width="0.28301"/>
<path d="M20.4345 10.7078H0.829005V9.69204C0.828935 7.17136 1.82527 4.75291 3.60078 2.96387C5.37618 1.17496 7.78669 0.160453 10.3068 0.141505H20.4345V10.7078Z" fill="white" stroke="black" stroke-width="0.28301"/>
<path d="M37.8476 10.7078H37.7061V10.8493V54.1051H24.2118V0.141505H51.1907C53.7171 0.151003 56.1369 1.16138 57.92 2.95137C59.7032 4.74143 60.7044 7.16523 60.7044 9.69204V10.7078H37.8476Z" fill="white" stroke="black" stroke-width="0.28301"/>
<path d="M0.81338 25.21V14.4267H20.4912V25.21H0.81338Z" fill="white" stroke="black" stroke-width="0.28301"/>
<path d="M41.454 25.21V14.4267H60.734V25.21H41.454Z" fill="white" stroke="black" stroke-width="0.28301"/>
<path d="M41.454 39.7295V28.9462H60.734V39.7295H41.454Z" fill="white" stroke="black" stroke-width="0.28301"/>
<path d="M60.734 44.4815L60.734 44.4818C60.7364 45.7375 60.4911 46.9813 60.0122 48.142C59.5334 49.3028 58.8303 50.3578 57.9433 51.2465C57.0563 52.1353 56.0028 52.8404 54.843 53.3214C53.6833 53.8025 52.44 54.0501 51.1844 54.0501H41.454V43.4657H60.734L60.734 44.4815Z" fill="white" stroke="black" stroke-width="0.28301"/>
</svg>
