<svg width="12" height="20" viewBox="0 0 12 20" fill="none" xmlns="http://www.w3.org/2000/svg">
<path d="M9.12189 19.243L0.696891 10.843C0.596891 10.743 0.525891 10.6346 0.483891 10.518C0.441891 10.4013 0.421224 10.2763 0.421891 10.143C0.421891 10.0096 0.442891 9.88464 0.484891 9.76797C0.526891 9.6513 0.597557 9.54297 0.696891 9.44297L9.12189 1.01797C9.35522 0.784635 9.64689 0.667969 9.99689 0.667969C10.3469 0.667969 10.6469 0.792969 10.8969 1.04297C11.1469 1.29297 11.2719 1.58464 11.2719 1.91797C11.2719 2.2513 11.1469 2.54297 10.8969 2.79297L3.54689 10.143L10.8969 17.493C11.1302 17.7263 11.2469 18.014 11.2469 18.356C11.2469 18.698 11.1219 18.9936 10.8719 19.243C10.6219 19.493 10.3302 19.618 9.99689 19.618C9.66356 19.618 9.37189 19.493 9.12189 19.243Z" fill="#282828"/>
</svg>
